solid rpi-display-mount
facet normal -1.0 0.0 0.0
outer loop
vertex 0.0 66.3 16.5
vertex 0.0 0.0 0.0
vertex 0.0 -5.4989346409684e-014 16.4999999999999
endloop
endfacet
facet normal -1.0 0.0 0.0
outer loop
vertex 0.0 0.0 0.0
vertex 0.0 66.3 16.5
vertex 0.0 66.2999999999999 1.40998324127395e-015
endloop
endfacet
facet normal 0.0 -1.0 -3.33268766119298e-015
outer loop
vertex 99.0 -5.4989346409684e-014 16.4999999999999
vertex 0.0 0.0 0.0
vertex 99.0 0.0 0.0
endloop
endfacet
facet normal 0.0 -1.0 -3.33268766119298e-015
outer loop
vertex 0.0 0.0 0.0
vertex 99.0 -5.4989346409684e-014 16.4999999999999
vertex 0.0 -5.4989346409684e-014 16.4999999999999
endloop
endfacet
facet normal 1.0 -0.0 -0.0
outer loop
vertex 99.0 0.0 0.0
vertex 99.0 66.3 16.5
vertex 99.0 -5.4989346409684e-014 16.4999999999999
endloop
endfacet
facet normal 1.0 -0.0 -0.0
outer loop
vertex 99.0 66.3 16.5
vertex 99.0 0.0 0.0
vertex 99.0 66.2999999999999 1.40998324127395e-015
endloop
endfacet
facet normal -0.0 1.0 -5.46902590554745e-015
outer loop
vertex 0.0 66.3 16.5
vertex 99.0 66.2999999999999 1.40998324127395e-015
vertex 0.0 66.2999999999999 1.40998324127395e-015
endloop
endfacet
facet normal -0.0 1.0 -5.46902590554745e-015
outer loop
vertex 99.0 66.2999999999999 1.40998324127395e-015
vertex 0.0 66.3 16.5
vertex 99.0 66.3 16.5
endloop
endfacet
facet normal 0.0 2.97734017765238e-016 -1.0
outer loop
vertex 0.0 66.3 16.5
vertex 3.0 63.2999999999999 16.5
vertex 0.0 -5.4989346409684e-014 16.4999999999999
endloop
endfacet
facet normal 0.0 2.97734017765238e-016 -1.0
outer loop
vertex 3.0 63.2999999999999 16.5
vertex 0.0 66.3 16.5
vertex 99.0 66.3 16.5
endloop
endfacet
facet normal 0.0 2.97734017765238e-016 -1.0
outer loop
vertex 3.0 63.2999999999999 16.5
vertex 99.0 66.3 16.5
vertex 96.0 63.2999999999999 16.5
endloop
endfacet
facet normal 0.0 2.97734017765238e-016 -1.0
outer loop
vertex 96.0 63.2999999999999 16.5
vertex 99.0 66.3 16.5
vertex 96.0 2.9999999999999 16.4999999999999
endloop
endfacet
facet normal 0.0 2.97734017765238e-016 -1.0
outer loop
vertex 0.0 -5.4989346409684e-014 16.4999999999999
vertex 3.0 2.9999999999999 16.4999999999999
vertex 99.0 -5.4989346409684e-014 16.4999999999999
endloop
endfacet
facet normal 0.0 2.97734017765238e-016 -1.0
outer loop
vertex 3.0 2.9999999999999 16.4999999999999
vertex 0.0 -5.4989346409684e-014 16.4999999999999
vertex 3.0 63.2999999999999 16.5
endloop
endfacet
facet normal 0.0 2.97734017765238e-016 -1.0
outer loop
vertex 99.0 -5.4989346409684e-014 16.4999999999999
vertex 3.0 2.9999999999999 16.4999999999999
vertex 96.0 2.9999999999999 16.4999999999999
endloop
endfacet
facet normal 0.0 2.97734017765238e-016 -1.0
outer loop
vertex 99.0 -5.4989346409684e-014 16.4999999999999
vertex 96.0 2.9999999999999 16.4999999999999
vertex 99.0 66.3 16.5
endloop
endfacet
facet normal 2.81250889418885e-047 1.0 7.64736673233325e-015
outer loop
vertex 3.0 63.2999999999999 16.5
vertex 96.0 63.2999999999999 10.5999999999999
vertex 3.0 63.2999999999999 10.5999999999999
endloop
endfacet
facet normal 2.81250889418885e-047 1.0 7.64736673233325e-015
outer loop
vertex 96.0 63.2999999999999 10.5999999999999
vertex 3.0 63.2999999999999 16.5
vertex 96.0 63.2999999999999 16.5
endloop
endfacet
facet normal 1.0 -0.0 -0.0
outer loop
vertex 96.0 2.99999999999991 10.5999999999999
vertex 96.0 63.2999999999999 16.5
vertex 96.0 2.9999999999999 16.4999999999999
endloop
endfacet
facet normal 1.0 -0.0 -0.0
outer loop
vertex 96.0 63.2999999999999 16.5
vertex 96.0 2.99999999999991 10.5999999999999
vertex 96.0 63.2999999999999 10.5999999999999
endloop
endfacet
facet normal 0.0 -1.0 -2.15082189346873e-015
outer loop
vertex 96.0 2.9999999999999 16.4999999999999
vertex 3.0 2.99999999999991 10.5999999999999
vertex 96.0 2.99999999999991 10.5999999999999
endloop
endfacet
facet normal 0.0 -1.0 -2.15082189346873e-015
outer loop
vertex 3.0 2.99999999999991 10.5999999999999
vertex 96.0 2.9999999999999 16.4999999999999
vertex 3.0 2.9999999999999 16.4999999999999
endloop
endfacet
facet normal -1.0 0.0 0.0
outer loop
vertex 3.0 63.2999999999999 16.5
vertex 3.0 2.99999999999991 10.5999999999999
vertex 3.0 2.9999999999999 16.4999999999999
endloop
endfacet
facet normal -1.0 0.0 0.0
outer loop
vertex 3.0 2.99999999999991 10.5999999999999
vertex 3.0 63.2999999999999 16.5
vertex 3.0 63.2999999999999 10.5999999999999
endloop
endfacet
facet normal 1.76202561181234e-032 4.20890519783268e-016 -1.0
outer loop
vertex 3.0 63.2999999999999 10.5999999999999
vertex 10.0 56.2999999999999 10.6
vertex 3.0 2.99999999999991 10.5999999999999
endloop
endfacet
facet normal 1.76202561181234e-032 4.20890519783268e-016 -1.0
outer loop
vertex 10.0 56.2999999999999 10.6
vertex 3.0 63.2999999999999 10.5999999999999
vertex 96.0 63.2999999999999 10.5999999999999
endloop
endfacet
facet normal 1.76202561181234e-032 4.20890519783268e-016 -1.0
outer loop
vertex 10.0 56.2999999999999 10.6
vertex 96.0 63.2999999999999 10.5999999999999
vertex 32.3 56.2999999999999 10.6
endloop
endfacet
facet normal 1.76202561181234e-032 4.20890519783268e-016 -1.0
outer loop
vertex 32.3 56.2999999999999 10.6
vertex 96.0 63.2999999999999 10.5999999999999
vertex 32.3 9.99999999999988 10.5999999999999
endloop
endfacet
facet normal 1.76202561181234e-032 4.20890519783268e-016 -1.0
outer loop
vertex 3.0 2.99999999999991 10.5999999999999
vertex 10.0 9.9999999999999 10.5999999999999
vertex 96.0 2.99999999999991 10.5999999999999
endloop
endfacet
facet normal 1.76202561181234e-032 4.20890519783268e-016 -1.0
outer loop
vertex 10.0 9.9999999999999 10.5999999999999
vertex 3.0 2.99999999999991 10.5999999999999
vertex 10.0 56.2999999999999 10.6
endloop
endfacet
facet normal 1.76202561181234e-032 4.20890519783268e-016 -1.0
outer loop
vertex 96.0 2.99999999999991 10.5999999999999
vertex 10.0 9.9999999999999 10.5999999999999
vertex 32.3 9.99999999999988 10.5999999999999
endloop
endfacet
facet normal 1.76202561181234e-032 4.20890519783268e-016 -1.0
outer loop
vertex 96.0 2.99999999999991 10.5999999999999
vertex 32.3 9.99999999999988 10.5999999999999
vertex 96.0 63.2999999999999 10.5999999999999
endloop
endfacet
facet normal 7.58735376470283e-016 1.0 5.58672605033077e-015
outer loop
vertex 10.0 9.9999999999999 10.5999999999999
vertex 32.3 9.99999999999994 -1.12798659301916e-014
vertex 10.0 9.99999999999996 -3.24296145493008e-014
endloop
endfacet
facet normal 7.58735376470283e-016 1.0 5.58672605033077e-015
outer loop
vertex 32.3 9.99999999999994 -1.12798659301916e-014
vertex 10.0 9.9999999999999 10.5999999999999
vertex 32.3 9.99999999999988 10.5999999999999
endloop
endfacet
facet normal 1.0 2.59391330147289e-031 -1.0641382953011e-015
outer loop
vertex 10.0 9.99999999999996 -3.24296145493008e-014
vertex 10.0 56.2999999999999 10.6
vertex 10.0 9.9999999999999 10.5999999999999
endloop
endfacet
facet normal 1.0 2.59391330147289e-031 -1.0641382953011e-015
outer loop
vertex 10.0 56.2999999999999 10.6
vertex 10.0 9.99999999999996 -3.24296145493008e-014
vertex 10.0 56.2999999999999 -4.08895139969445e-014
endloop
endfacet
facet normal -1.0 0.0 0.0
outer loop
vertex 32.3 9.99999999999988 10.5999999999999
vertex 32.3 15.5499999999999 7.59999999999997
vertex 32.3 9.99999999999994 -1.12798659301916e-014
endloop
endfacet
facet normal -1.0 0.0 0.0
outer loop
vertex 32.3 15.5499999999999 7.59999999999997
vertex 32.3 9.99999999999988 10.5999999999999
vertex 32.3 56.2999999999999 10.6
endloop
endfacet
facet normal -1.0 0.0 0.0
outer loop
vertex 32.3 15.5499999999999 7.59999999999997
vertex 32.3 56.2999999999999 10.6
vertex 32.3 50.7499999999999 7.59999999999999
endloop
endfacet
facet normal -1.0 0.0 0.0
outer loop
vertex 32.3 50.7499999999999 7.59999999999999
vertex 32.3 56.2999999999999 10.6
vertex 32.3 50.75 2.99999999999996
endloop
endfacet
facet normal -1.0 0.0 0.0
outer loop
vertex 32.3 50.75 2.99999999999996
vertex 32.3 56.2999999999999 10.6
vertex 32.3 56.2999999999999 -4.08895139969445e-014
endloop
endfacet
facet normal -1.0 0.0 0.0
outer loop
vertex 32.3 9.99999999999994 -1.12798659301916e-014
vertex 32.3 15.5499999999999 2.99999999999995
vertex 32.3 56.2999999999999 -4.08895139969445e-014
endloop
endfacet
facet normal -1.0 0.0 0.0
outer loop
vertex 32.3 15.5499999999999 2.99999999999995
vertex 32.3 9.99999999999994 -1.12798659301916e-014
vertex 32.3 15.5499999999999 7.59999999999997
endloop
endfacet
facet normal -1.0 0.0 0.0
outer loop
vertex 32.3 56.2999999999999 -4.08895139969445e-014
vertex 32.3 15.5499999999999 2.99999999999995
vertex 32.3 50.75 2.99999999999996
endloop
endfacet
facet normal 0.0 2.12667155546599e-017 -1.0
outer loop
vertex 0.0 66.2999999999999 1.40998324127395e-015
vertex 10.0 56.2999999999999 -4.08895139969445e-014
vertex 0.0 0.0 0.0
endloop
endfacet
facet normal 0.0 2.12667155546599e-017 -1.0
outer loop
vertex 10.0 56.2999999999999 -4.08895139969445e-014
vertex 0.0 66.2999999999999 1.40998324127395e-015
vertex 99.0 66.2999999999999 1.40998324127395e-015
endloop
endfacet
facet normal 0.0 2.12667155546599e-017 -1.0
outer loop
vertex 10.0 56.2999999999999 -4.08895139969445e-014
vertex 99.0 66.2999999999999 1.40998324127395e-015
vertex 32.3 56.2999999999999 -4.08895139969445e-014
endloop
endfacet
facet normal 0.0 2.12667155546599e-017 -1.0
outer loop
vertex 32.3 56.2999999999999 -4.08895139969445e-014
vertex 99.0 66.2999999999999 1.40998324127395e-015
vertex 35.3000000000001 50.75 -4.79394302033143e-014
endloop
endfacet
facet normal 0.0 2.12667155546599e-017 -1.0
outer loop
vertex 32.3 56.2999999999999 -4.08895139969445e-014
vertex 35.3000000000001 50.75 -4.79394302033143e-014
vertex 32.3 9.99999999999994 -1.12798659301916e-014
endloop
endfacet
facet normal 0.0 2.12667155546599e-017 -1.0
outer loop
vertex 35.3000000000001 50.75 -4.79394302033143e-014
vertex 99.0 66.2999999999999 1.40998324127395e-015
vertex 83.5 50.75 -4.79394302033143e-014
endloop
endfacet
facet normal 0.0 2.12667155546599e-017 -1.0
outer loop
vertex 83.5 50.75 -4.79394302033143e-014
vertex 99.0 66.2999999999999 1.40998324127395e-015
vertex 83.5 15.5499999999999 -4.72344385826773e-014
endloop
endfacet
facet normal 0.0 2.12667155546599e-017 -1.0
outer loop
vertex 0.0 0.0 0.0
vertex 10.0 9.99999999999996 -3.24296145493008e-014
vertex 99.0 0.0 0.0
endloop
endfacet
facet normal 0.0 2.12667155546599e-017 -1.0
outer loop
vertex 10.0 9.99999999999996 -3.24296145493008e-014
vertex 0.0 0.0 0.0
vertex 10.0 56.2999999999999 -4.08895139969445e-014
endloop
endfacet
facet normal 0.0 2.12667155546599e-017 -1.0
outer loop
vertex 99.0 0.0 0.0
vertex 10.0 9.99999999999996 -3.24296145493008e-014
vertex 32.3 9.99999999999994 -1.12798659301916e-014
endloop
endfacet
facet normal 0.0 2.12667155546599e-017 -1.0
outer loop
vertex 99.0 0.0 0.0
vertex 32.3 9.99999999999994 -1.12798659301916e-014
vertex 35.3000000000001 15.5499999999999 -4.72344385826773e-014
endloop
endfacet
facet normal 0.0 2.12667155546599e-017 -1.0
outer loop
vertex 35.3000000000001 15.5499999999999 -4.72344385826773e-014
vertex 32.3 9.99999999999994 -1.12798659301916e-014
vertex 35.3000000000001 50.75 -4.79394302033143e-014
endloop
endfacet
facet normal 0.0 2.12667155546599e-017 -1.0
outer loop
vertex 99.0 0.0 0.0
vertex 35.3000000000001 15.5499999999999 -4.72344385826773e-014
vertex 83.5 15.5499999999999 -4.72344385826773e-014
endloop
endfacet
facet normal 0.0 2.12667155546599e-017 -1.0
outer loop
vertex 99.0 0.0 0.0
vertex 83.5 15.5499999999999 -4.72344385826773e-014
vertex 99.0 66.2999999999999 1.40998324127395e-015
endloop
endfacet
facet normal -2.4228015478015e-031 -1.0 2.12827659060219e-015
outer loop
vertex 32.3 56.2999999999999 10.6
vertex 10.0 56.2999999999999 -4.08895139969445e-014
vertex 32.3 56.2999999999999 -4.08895139969445e-014
endloop
endfacet
facet normal -2.4228015478015e-031 -1.0 2.12827659060219e-015
outer loop
vertex 10.0 56.2999999999999 -4.08895139969445e-014
vertex 32.3 56.2999999999999 10.6
vertex 10.0 56.2999999999999 10.6
endloop
endfacet
facet normal -9.31969083942055e-033 6.4090147330634e-016 -1.0
outer loop
vertex 83.5 50.7499999999999 7.59999999999999
vertex 32.3 15.5499999999999 7.59999999999997
vertex 32.3 50.7499999999999 7.59999999999999
endloop
endfacet
facet normal -9.31969083942055e-033 6.4090147330634e-016 -1.0
outer loop
vertex 32.3 15.5499999999999 7.59999999999997
vertex 83.5 50.7499999999999 7.59999999999999
vertex 83.5 15.5499999999999 7.59999999999997
endloop
endfacet
facet normal -0.0 1.0 -0.0
outer loop
vertex 32.3 15.5499999999999 7.59999999999997
vertex 35.3000000000001 15.5499999999999 2.99999999999995
vertex 32.3 15.5499999999999 2.99999999999995
endloop
endfacet
facet normal -0.0 1.0 -0.0
outer loop
vertex 35.3000000000001 15.5499999999999 2.99999999999995
vertex 83.5 15.5499999999999 -4.72344385826773e-014
vertex 35.3000000000001 15.5499999999999 -4.72344385826773e-014
endloop
endfacet
facet normal -0.0 1.0 -0.0
outer loop
vertex 83.5 15.5499999999999 -4.72344385826773e-014
vertex 35.3000000000001 15.5499999999999 2.99999999999995
vertex 83.5 15.5499999999999 7.59999999999997
endloop
endfacet
facet normal -0.0 1.0 -0.0
outer loop
vertex 83.5 15.5499999999999 7.59999999999997
vertex 35.3000000000001 15.5499999999999 2.99999999999995
vertex 32.3 15.5499999999999 7.59999999999997
endloop
endfacet
facet normal -1.0 0.0 0.0
outer loop
vertex 83.5 50.7499999999999 7.59999999999999
vertex 83.5 15.5499999999999 -4.72344385826773e-014
vertex 83.5 15.5499999999999 7.59999999999997
endloop
endfacet
facet normal -1.0 0.0 0.0
outer loop
vertex 83.5 15.5499999999999 -4.72344385826773e-014
vertex 83.5 50.7499999999999 7.59999999999999
vertex 83.5 50.75 -4.79394302033143e-014
endloop
endfacet
facet normal 1.0 -0.0 -0.0
outer loop
vertex 35.3000000000001 50.75 -4.79394302033143e-014
vertex 35.3000000000001 15.5499999999999 2.99999999999995
vertex 35.3000000000001 15.5499999999999 -4.72344385826773e-014
endloop
endfacet
facet normal 1.0 -0.0 -0.0
outer loop
vertex 35.3000000000001 15.5499999999999 2.99999999999995
vertex 35.3000000000001 50.75 -4.79394302033143e-014
vertex 35.3000000000001 50.75 2.99999999999996
endloop
endfacet
facet normal -3.13435709950312e-016 -1.0 -3.4602120846885e-015
outer loop
vertex 83.5 50.7499999999999 7.59999999999999
vertex 35.3000000000001 50.75 -4.79394302033143e-014
vertex 83.5 50.75 -4.79394302033143e-014
endloop
endfacet
facet normal -3.13435709950312e-016 -1.0 -3.4602120846885e-015
outer loop
vertex 35.3000000000001 50.75 -4.79394302033143e-014
vertex 83.5 50.7499999999999 7.59999999999999
vertex 35.3000000000001 50.75 2.99999999999996
endloop
endfacet
facet normal -3.13435709950312e-016 -1.0 -3.4602120846885e-015
outer loop
vertex 35.3000000000001 50.75 2.99999999999996
vertex 83.5 50.7499999999999 7.59999999999999
vertex 32.3 50.75 2.99999999999996
endloop
endfacet
facet normal -3.13435709950312e-016 -1.0 -3.4602120846885e-015
outer loop
vertex 32.3 50.75 2.99999999999996
vertex 83.5 50.7499999999999 7.59999999999999
vertex 32.3 50.7499999999999 7.59999999999999
endloop
endfacet
facet normal -0.0 -1.9026762488782e-016 1.0
outer loop
vertex 35.3000000000001 15.5499999999999 2.99999999999995
vertex 32.3 50.75 2.99999999999996
vertex 32.3 15.5499999999999 2.99999999999995
endloop
endfacet
facet normal -0.0 -1.9026762488782e-016 1.0
outer loop
vertex 32.3 50.75 2.99999999999996
vertex 35.3000000000001 15.5499999999999 2.99999999999995
vertex 35.3000000000001 50.75 2.99999999999996
endloop
endfacet
endsolid rpi-display-mount
